<svg width="1680" height="602" viewBox="0 0 1680 602" fill="none" xmlns="http://www.w3.org/2000/svg">
<mask id="mask0_125_6588" style="mask-type:alpha" maskUnits="userSpaceOnUse" x="0" y="0" width="1680" height="602">
<rect width="1680" height="602" fill="#F3F3F3"/>
</mask>
<g mask="url(#mask0_125_6588)">
<rect width="1680" height="602" fill="#F3F3F3"/>
<g opacity="0.5">
<path d="M-150.643 850.168L-205.457 775.717L-18.3347 633.913C29.173 597.911 87.4758 582.726 146.019 591.205C146.442 591.266 147.076 591.358 147.499 591.42C206.614 600.419 258.331 632.196 293.305 681.238C307.637 701.473 329.035 714.637 353.551 718.188C353.763 718.218 353.974 718.249 354.185 718.28C378.279 721.769 402.259 715.616 421.893 700.737C461.402 670.797 470.385 613.243 441.752 572.558L398.788 511.638C341.872 433.819 357.919 323.028 434.967 264.831C472.779 236.177 518.955 224.267 565.389 231.43C611.855 238.379 652.662 263.543 680.094 302.085C728.561 369.71 791.719 458.06 843.792 530.583C882.553 584.768 958.03 597.013 1012.04 557.796L1015.65 555.255C1043.85 534.836 1062.28 504.467 1067.67 470.241C1073.02 436.229 1064.58 402.187 1044.2 374.513L994.585 307.378C966.457 269.172 954.706 222.181 961.534 175.036C968.362 127.891 992.963 86.1645 1030.56 57.4793L1036.62 52.8872C1074.68 24.0488 1121.1 11.9559 1167.41 18.4455C1167.62 18.4761 1167.84 18.5067 1168.05 18.5373C1214.12 25.2106 1255.02 49.7315 1282.76 87.6614L1285.46 91.335C1306.92 120.479 1338.29 139.245 1373.59 144.357C1409.1 149.499 1444.51 140.407 1473.14 118.518L1701.89 -54.4512L1756.7 20.0003L1528.62 192.847C1480.14 229.584 1420.51 245.013 1360.91 236.381C1301.1 227.718 1248.29 196.003 1212.23 147.022L1209.53 143.348C1196.36 125.47 1177.13 113.715 1155.15 110.531L1154.94 110.5C1132.75 107.286 1110.31 113.226 1091.89 127.186L1085.83 131.778C1067.9 145.37 1056.16 165.33 1052.87 188.046C1049.61 210.547 1055.2 233.017 1068.72 251.385L1118.16 318.275C1153.53 366.062 1167.87 425.024 1158.67 484.077C1149.43 543.345 1117.72 595.419 1069.22 630.84L1065.62 633.381C1019.57 666.75 963.479 680.067 907.807 671.129C851.924 662.16 803.042 631.669 769.839 585.29C717.798 512.553 654.607 424.417 606.141 356.792C593.04 338.486 573.812 326.73 551.863 323.332C529.883 320.149 507.96 325.506 490.023 339.099C472.329 352.508 460.865 372.07 457.668 394.143C454.471 416.215 459.914 438.226 473.077 456.104L473.618 456.839L516.942 518.249C544.854 557.955 556.176 606.416 548.739 654.785C541.302 703.155 515.7 745.83 477.13 775.25C437.863 805.007 389.661 817.498 341.262 810.488C340.839 810.427 340.416 810.365 339.994 810.304C291.234 802.804 248.227 776.447 219.352 735.945C198.89 707.383 168.602 688.556 133.972 683.321C133.761 683.291 133.338 683.23 133.127 683.199C98.8883 678.24 64.5966 687.057 36.9335 708.211L-150.643 850.168Z" fill="#ECEDED"/>
<path d="M-145.495 792.279L-149.282 787.136L-128.921 771.706L-125.135 776.849L-145.495 792.279ZM-104.532 761.236L-108.319 756.093L-87.9581 740.663L-84.1716 745.807L-104.532 761.236ZM-63.8111 730.377L-67.5977 725.234L-47.2372 709.805L-43.4507 714.948L-63.8111 730.377ZM347.257 767.599C339.649 766.497 331.922 764.721 324.5 762.333L326.488 756.058C334.333 758.507 342.482 760.343 350.756 761.323L350.036 767.782C348.948 767.843 348.103 767.721 347.257 767.599ZM375.801 768.67L375.433 762.272C383.713 761.72 391.874 760.496 399.948 758.383L401.404 764.72C393.119 766.802 384.504 768.18 375.801 768.67ZM300.523 752.078C292.926 747.915 285.665 742.925 278.888 737.568L282.866 732.455C289.219 737.751 296.3 742.496 303.505 746.384L300.523 752.078ZM-22.8478 699.335L-26.6344 694.192L-6.27389 678.762L-2.48736 683.905L-22.8478 699.335ZM426.21 755.842L423.605 749.995C431.02 746.474 438.316 742.28 445.072 737.351L448.827 742.709C441.618 747.791 434.079 752.168 426.21 755.842ZM260.411 719.138C258.216 716.414 255.841 713.444 253.889 710.536C251.004 706.618 247.908 702.668 244.78 698.934L249.721 694.617C253.06 698.382 256.125 702.546 259.19 706.709C261.174 709.403 263.337 712.342 265.563 714.852L260.411 719.138ZM18.0534 668.721L14.5093 663.394C21.6878 658.526 29.2269 654.148 37.1266 650.26L39.9436 656.138C32.3173 659.628 25.0205 663.822 18.0534 668.721ZM468.38 725.412L463.866 720.82C469.689 714.881 474.971 708.207 479.439 701.196L484.742 704.809C480.032 712.003 474.476 719.075 468.38 725.412ZM227.086 681.055C220.763 675.545 214.167 670.433 207.055 665.902L210.43 660.483C217.722 665.259 224.741 670.433 231.244 676.188L227.086 681.055ZM62.8786 646.77L60.9691 640.586C69.1053 638.045 77.6021 635.994 86.2172 634.616L87.2192 641.106C79.0889 642.117 70.8035 644.199 62.8786 646.77ZM185.048 653.963C177.57 650.473 169.576 647.565 161.7 645.33L163.476 639.024C171.775 641.32 179.95 644.473 187.851 648.024L185.048 653.963ZM112.151 638.81L112.025 632.228C120.666 632.167 129.244 632.534 137.909 633.789L136.978 640.218C128.947 639.055 120.58 638.718 112.151 638.81ZM496.977 681.42L491.065 679.032C494.327 671.409 496.805 663.235 498.439 654.939L504.717 656.286C503.053 664.797 500.512 673.399 496.977 681.42ZM501.647 629.805C501.801 621.295 501.29 612.907 500.113 604.641L506.522 603.6C507.847 612.325 508.508 621.172 508.112 629.867L501.647 629.805ZM493.924 580.334C491.175 572.497 487.549 564.752 483.408 557.588L488.859 554.221C493.149 561.843 496.955 569.834 499.853 578.13L493.924 580.334ZM917.395 628.76C913.168 628.148 908.761 627.291 904.565 626.464L905.919 620.096C914.068 621.933 922.311 623.127 930.647 623.678L930.138 630.168C925.88 629.77 921.622 629.372 917.395 628.76ZM956.059 629.984L955.479 623.555C963.79 622.79 971.982 621.351 980.026 619.453L981.481 625.79C973.227 627.657 964.792 629.28 956.059 629.984ZM879.793 618.719C871.83 615.597 863.96 611.831 856.394 607.454L859.588 601.79C866.762 605.892 874.421 609.627 881.961 612.688L879.793 618.719ZM1006.41 617.585L1004.04 611.554C1011.64 608.278 1019.3 604.574 1026.41 600.135L1029.71 605.645C1022.14 610.238 1014.45 614.156 1006.41 617.585ZM835.033 592.545C828.288 586.973 822.027 581.034 816.282 574.514L821.012 570.167C826.576 576.442 832.656 582.136 839.221 587.463L835.033 592.545ZM469.169 536.71L454.297 515.74L459.598 511.913L474.471 532.883L469.169 536.71ZM1050.86 590.767L1046.86 585.593C1053.43 580.42 1059.68 574.542 1065.29 568.572L1069.84 572.95C1064.16 579.348 1057.71 585.195 1050.86 590.767ZM800.26 554.034L785.356 533.278L790.446 529.42L805.35 550.176L800.26 554.034ZM439.666 494.586L433.567 486.045C430.502 481.882 427.679 477.535 425.067 473.218L430.729 469.881C433.13 474.167 435.772 478.269 438.657 482.188L444.726 490.943L439.666 494.586ZM770.241 512.491L755.337 491.736L760.427 487.878L775.331 508.634L770.241 512.491ZM1086.38 552.592L1081.11 548.765C1086 541.816 1090.29 534.56 1093.97 526.999L1099.61 529.784C1095.86 537.775 1091.51 545.459 1086.38 552.592ZM414.315 449.125C411.628 440.86 409.669 432.043 408.554 423.349L414.932 422.522C415.897 430.757 417.918 439.145 420.456 446.952L414.315 449.125ZM740.464 470.765L725.561 450.01L730.651 446.152L745.555 466.908L740.464 470.765ZM1109.58 505.63L1103.4 503.64C1106.05 495.711 1108.11 487.476 1109.32 479.119L1115.63 480.252C1114.39 488.823 1112.3 497.273 1109.58 505.63ZM407.84 396.991C408.095 393.745 408.349 390.5 408.814 387.286C409.621 381.714 410.82 376.418 412.261 370.938L418.477 372.714C417.098 377.765 415.9 383.061 415.155 388.204C414.72 391.204 414.466 394.45 414.243 397.48L407.84 396.991ZM710.477 429.009L695.573 408.253L700.663 404.396L715.567 425.152L710.477 429.009ZM1112.11 453.924C1112.26 445.413 1111.96 437.056 1110.82 428.576L1117.19 427.749C1118.31 436.444 1118.76 445.26 1118.57 453.985L1112.11 453.924ZM680.7 387.283L665.797 366.527L670.887 362.67L685.79 383.426L680.7 387.283ZM427.48 349.294L421.872 346.294C425.83 338.335 430.572 330.926 435.885 324.038L440.914 328.048C435.663 334.508 431.164 341.733 427.48 349.294ZM650.713 345.526L640.466 331.353C638.843 329.148 637.401 327.189 635.778 324.985L640.688 320.883C642.31 323.087 644.145 325.322 645.767 327.526L656.014 341.7L650.713 345.526ZM1105.78 403.779C1103.48 395.789 1100.55 387.707 1097.14 379.992L1102.92 377.329C1106.51 385.288 1109.41 393.585 1111.85 402.034L1105.78 403.779ZM458.023 309.741L453.783 304.751C455.996 302.884 458.208 301.017 460.601 299.394C465.206 295.904 470.203 292.69 475.169 289.689L478.229 295.383C473.505 298.2 468.75 301.231 464.388 304.537C462.206 306.19 459.994 308.058 458.023 309.741ZM618.264 307.352C611.91 302.056 604.798 297.525 597.593 293.637L600.576 287.943C608.173 292.106 615.676 296.913 622.21 302.454L618.264 307.352ZM501.045 285.342L499.136 279.158C507.515 276.433 515.98 274.596 524.533 273.647L525.324 280.107C517.225 280.903 508.97 282.77 501.045 285.342ZM574.58 284.178C566.704 281.943 558.524 280.321 550.219 279.555L550.727 273.065C559.455 273.892 568.089 275.361 576.357 277.871L574.58 284.178ZM1085.23 357.92C1083.13 354.553 1080.99 351.4 1078.65 348.216L1070.54 337.195L1075.63 333.338L1083.74 344.358C1086.08 347.542 1088.4 350.94 1090.71 354.338L1085.23 357.92ZM1055.39 316.623L1040.24 296.051L1045.33 292.193L1060.48 312.766L1055.39 316.623ZM1024.95 275.019C1020.17 267.764 1015.91 259.927 1012.77 251.814L1018.73 249.396C1021.94 257.08 1025.81 264.641 1030.4 271.652L1024.95 275.019ZM1005.2 226.65C1003.42 218.078 1002.76 209.231 1002.73 200.476L1009.2 200.537C1009.28 208.864 1010.01 217.282 1011.61 225.609L1005.2 226.65ZM1011.56 175.281L1005.28 173.934C1006.98 165.209 1009.49 156.821 1012.84 148.555L1018.75 150.943C1015.67 158.811 1013.19 166.984 1011.56 175.281ZM1371.98 194.226L1372.7 187.767C1380.97 188.747 1389.34 189.083 1397.55 188.961L1397.68 195.543C1389.25 195.634 1380.67 195.267 1371.98 194.226ZM1346.56 189.451C1338.26 187.155 1330.02 184.431 1322.09 181.094L1324.68 175.124C1332.4 178.43 1340.22 181.094 1348.34 183.145L1346.56 189.451ZM1423.73 192.971L1422.73 186.481C1430.92 185.042 1439.21 182.96 1447.13 180.388L1449.04 186.572C1440.66 189.297 1432.17 191.348 1423.73 192.971ZM1299 169.216C1291.67 164.655 1284.41 159.665 1277.88 154.124L1281.86 149.011C1288.21 154.307 1295.26 159.267 1302.19 163.552L1299 169.216ZM1030.35 128.993L1025.04 125.38C1029.79 117.972 1035.52 111.145 1041.62 104.808L1046.13 109.4C1040.31 115.339 1035.03 122.013 1030.35 128.993ZM1472.88 176.898L1470.07 171.02C1477.51 167.285 1484.81 163.091 1491.75 158.407L1495.29 163.734C1488.32 168.632 1480.78 173.01 1472.88 176.898ZM1258.88 136.276C1254.4 131.47 1250.19 126.266 1246.44 120.908L1242.83 116.01L1247.92 112.153L1251.53 117.051C1255.31 122.194 1259.34 127.153 1263.65 131.715L1258.88 136.276ZM1065.32 93.144L1061.53 88.0009L1062.26 87.4499C1069.04 82.3067 1076.16 77.8677 1083.61 74.1328L1086.42 80.0105C1079.43 83.5924 1072.56 87.8478 1066.04 92.5929L1065.32 93.144ZM1516.07 148.366L1512.29 143.223L1532.65 127.793L1536.43 132.936L1516.07 148.366ZM1225.83 97.7954C1219.72 92.3157 1212.88 87.387 1205.71 83.2849L1208.9 77.6213C1216.47 81.999 1223.49 87.1726 1229.99 92.9279L1225.83 97.7954ZM1109.75 70.9181L1108.08 64.5505C1116.4 62.2543 1125.05 60.6624 1133.75 60.1725L1134.12 66.5707C1126.02 67.3667 1117.83 68.8056 1109.75 70.9181ZM1183.27 72.8153C1176.06 70.4581 1168.76 68.7438 1161.36 67.6725C1160.73 67.5806 1159.88 67.4582 1159.25 67.3663L1159.97 60.9069C1160.81 61.0293 1161.45 61.1212 1162.29 61.2436C1170.11 62.3762 1177.84 64.1517 1185.44 66.7844L1183.27 72.8153ZM1557.04 117.323L1553.25 112.18L1573.61 96.7507L1577.4 101.894L1557.04 117.323ZM1597.97 86.4949L1594.18 81.3519L1614.54 65.9225L1618.33 71.0655L1597.97 86.4949ZM1638.72 55.4217L1634.93 50.2787L1655.29 34.8493L1659.08 39.9923L1638.72 55.4217ZM1679.68 24.3792L1675.9 19.2362L1696.26 3.8067L1700.04 8.94974L1679.68 24.3792Z" fill="white"/>
</g>
</g>
</svg>
