<svg width="172" height="80" viewBox="0 0 172 80" fill="none" xmlns="http://www.w3.org/2000/svg">
<g clip-path="url(#clip0_105_6449)">
<path fill-rule="evenodd" clip-rule="evenodd" d="M35.5083 27.363C35.9722 27.0654 35.8635 26.0726 35.267 25.148C34.6705 24.2233 33.8128 23.7117 33.3495 24.0106C32.8862 24.3095 32.9943 25.3017 33.5908 26.227C34.1873 27.1523 35.0489 27.662 35.5083 27.363ZM40.3096 30.8898C40.5992 30.4212 40.073 29.5735 39.1364 28.9935C38.1999 28.4136 37.205 28.3267 36.9174 28.7947C36.6297 29.2626 37.1533 30.1123 38.0899 30.691C39.0264 31.2696 40.0206 31.3577 40.3096 30.8898ZM59.4201 5.96516C58.9562 6.26408 59.0649 7.25564 59.6614 8.18157C60.2579 9.1075 61.1156 9.61653 61.5789 9.31893C62.0422 9.02134 61.9341 8.02846 61.3376 7.10253C60.7411 6.1766 59.8821 5.67021 59.4201 5.96516ZM54.6188 2.43906C54.3292 2.90832 54.8554 3.75605 55.792 4.33467C56.7285 4.9133 57.7227 5.00277 58.0124 4.53351C58.302 4.06425 57.7757 3.21586 56.8385 2.6379C55.9013 2.05994 54.9078 1.97311 54.6188 2.44171V2.43906ZM59.4201 27.3604C58.9562 27.0628 59.0649 26.0699 59.6614 25.1453C60.2579 24.2207 61.1156 23.709 61.5789 24.0079C62.0422 24.3069 61.9341 25.2991 61.3376 26.2243C60.7411 27.1496 59.8821 27.662 59.4201 27.363V27.3604ZM54.6188 30.8871C54.3292 30.4185 54.8554 29.5708 55.792 28.9909C56.7285 28.4109 57.7227 28.3241 58.0124 28.792C58.302 29.26 57.7757 30.1097 56.8385 30.6883C55.9013 31.2669 54.9078 31.3577 54.6188 30.8898V30.8871ZM35.5083 5.96516C35.9722 6.26408 35.8635 7.25564 35.267 8.18157C34.6705 9.1075 33.8128 9.61653 33.3495 9.31893C32.8862 9.02134 32.9956 8.02846 33.5908 7.10253C34.186 6.1766 35.0463 5.67021 35.5083 5.96516ZM40.3096 2.43906C40.5992 2.90832 40.0743 3.75605 39.1364 4.33467C38.1986 4.9133 37.205 5.00277 36.9174 4.53351C36.6297 4.06425 37.1533 3.21586 38.0899 2.6379C39.0264 2.05994 40.0206 1.97311 40.3096 2.44171V2.43906ZM50.0309 1.69871C50.0309 2.40724 48.8816 2.98256 47.4645 2.98256C46.0475 2.98256 44.8975 2.40791 44.8975 1.69937C44.8975 0.990839 46.0468 0.415527 47.4645 0.415527C48.8823 0.415527 50.0309 0.989513 50.0309 1.69871ZM50.0309 31.6335C50.0309 32.3427 48.8816 32.9173 47.4645 32.9173C46.0475 32.9173 44.8975 32.3427 44.8975 31.6335C44.8975 30.9243 46.0468 30.3503 47.4645 30.3503C48.8823 30.3503 50.0309 30.9249 50.0309 31.6335ZM32.4965 14.0997C33.2057 14.0997 33.7797 15.2484 33.7797 16.6661C33.7797 18.0838 33.2057 19.2318 32.4965 19.2318C31.7873 19.2318 31.2133 18.0838 31.2133 16.6661C31.2133 15.2484 31.788 14.0997 32.4965 14.0997ZM62.4319 14.0997C63.1404 14.0997 63.7151 15.2484 63.7151 16.6661C63.7151 18.0838 63.1404 19.2318 62.4319 19.2318C61.7234 19.2318 61.1481 18.0838 61.1481 16.6661C61.1481 15.2484 61.7227 14.0997 62.4319 14.0997ZM38.8402 24.3818C37.9374 25.1426 36.2844 24.6668 35.1464 23.3213C34.0084 21.9758 33.8208 20.2631 34.7229 19.5009C35.6249 18.7387 37.2799 19.2152 38.4166 20.5614C39.5533 21.9075 39.7416 23.6195 38.8402 24.3818ZM44.6894 29.5098C43.9212 30.4066 42.2118 30.2025 40.8736 29.0552C39.5354 27.9079 39.0702 26.2469 39.839 25.3528C40.6079 24.4586 42.3166 24.6595 43.6561 25.8074C44.9956 26.9554 45.4563 28.6137 44.6867 29.5098H44.6894ZM56.0909 8.94777C56.9936 8.18687 58.648 8.66276 59.7847 10.0082C60.9214 11.3537 61.1103 13.0664 60.2082 13.828C59.3061 14.5895 57.6511 14.113 56.5144 12.7675C55.3777 11.422 55.1868 9.71198 56.0909 8.94777ZM50.2404 3.82232C51.0092 2.92622 52.7179 3.1297 54.0561 4.27767C55.3943 5.42564 55.8569 7.08264 55.0881 7.97941C54.3192 8.87618 52.6105 8.6727 51.2723 7.52473C49.9341 6.37676 49.4735 4.71909 50.2404 3.82232ZM39.7489 8.03907C38.9873 7.13699 39.4632 5.48264 40.8094 4.34594C42.1555 3.20923 43.8675 3.02034 44.6284 3.92241C45.3893 4.82448 44.9154 6.47883 43.5679 7.6162C42.2205 8.75357 40.5111 8.94246 39.7489 8.03907ZM34.6208 13.8883C33.724 13.1234 33.9275 11.4107 35.0755 10.0745C36.2234 8.73832 37.8811 8.27436 38.7779 9.04321C39.6746 9.81206 39.4705 11.5201 38.3225 12.8583C37.1746 14.1965 35.5169 14.6571 34.6208 13.8883ZM55.1795 25.2931C55.9411 26.1958 55.4652 27.8495 54.1191 28.9862C52.7729 30.1229 51.0609 30.3118 50.3 29.4084C49.5391 28.505 50.013 26.8533 51.3605 25.716C52.708 24.5786 54.416 24.391 55.1795 25.2931ZM60.3083 19.4439C61.2044 20.2121 61.0009 21.9214 59.853 23.2596C58.705 24.5978 57.0473 25.0598 56.1505 24.2916C55.2538 23.5234 55.4579 21.8141 56.6059 20.4745C57.7539 19.135 59.4115 18.6737 60.3083 19.4439ZM57.1693 16.6661C57.1693 18.6969 55.5554 20.344 53.5663 20.344C51.5772 20.344 49.9626 18.6969 49.9626 16.6661C49.9626 14.6353 51.5752 12.9909 53.5663 12.9909C55.5573 12.9909 57.1693 14.6353 57.1693 16.6661ZM44.9658 16.6661C44.9658 18.6969 43.3532 20.344 41.3628 20.344C39.3724 20.344 37.7591 18.6969 37.7591 16.6661C37.7591 14.6353 39.3704 12.9909 41.3628 12.9909C43.3552 12.9909 44.9658 14.6353 44.9658 16.6661ZM47.4645 6.95936C49.4954 6.95936 51.1418 8.57262 51.1418 10.5623C51.1418 12.5521 49.4954 14.166 47.4645 14.166C45.4337 14.166 43.7867 12.5521 43.7867 10.5623C43.7867 8.57262 45.4331 6.95936 47.4645 6.95936ZM47.4645 19.1629C49.4954 19.1629 51.1418 20.7748 51.1418 22.7658C51.1418 24.7569 49.4954 26.3682 47.4645 26.3682C45.4337 26.3682 43.7867 24.7549 43.7867 22.7658C43.7867 20.7768 45.4331 19.1648 47.4645 19.1648V19.1629Z" fill="#62B6E3"/>
<path fill-rule="evenodd" clip-rule="evenodd" d="M57.9288 47.0887H55.2345C54.4263 47.1006 53.6551 47.43 53.0877 48.0057C52.5204 48.5815 52.2023 49.3574 52.2023 50.1658C52.2023 50.9741 52.5204 51.75 53.0877 52.3258C53.6551 52.9015 54.4263 53.2309 55.2345 53.2428H59.5354V46.1005C59.5335 45.3712 59.2431 44.6723 58.7276 44.1564C58.2121 43.6406 57.5134 43.3496 56.7842 43.3472H53.5364V44.9512H56.7842C57.0877 44.9539 57.3779 45.0761 57.5921 45.2911C57.8063 45.5062 57.9273 45.7969 57.9288 46.1005V47.0887ZM55.2319 48.6927H57.9288V51.6388H55.2345C54.8493 51.6307 54.4825 51.4719 54.2129 51.1965C53.9433 50.9211 53.7924 50.5511 53.7924 50.1658C53.7924 49.7804 53.9433 49.4104 54.2129 49.135C54.4825 48.8596 54.8493 48.7009 55.2345 48.6927H55.2319ZM16.5104 47.0887H13.8161C13.4082 47.0827 13.0032 47.1579 12.6246 47.3098C12.2461 47.4618 11.9015 47.6875 11.6109 47.9738C11.3204 48.2601 11.0896 48.6014 10.9321 48.9777C10.7746 49.354 10.6935 49.7578 10.6935 50.1658C10.6935 50.5737 10.7746 50.9775 10.9321 51.3538C11.0896 51.7301 11.3204 52.0714 11.6109 52.3577C11.9015 52.644 12.2461 52.8697 12.6246 53.0217C13.0032 53.1736 13.4082 53.2488 13.8161 53.2428H18.1157V46.1005C18.1138 45.3711 17.8232 44.6721 17.3076 44.1562C16.792 43.6403 16.0931 43.3495 15.3637 43.3472H12.1206V44.9512H15.3637C15.6677 44.9531 15.9587 45.0746 16.1738 45.2894C16.3889 45.5043 16.5108 45.7951 16.513 46.0991L16.5104 47.0887ZM13.8134 48.6927H16.5104V51.6388H13.8161C13.62 51.643 13.4251 51.608 13.2427 51.5358C13.0604 51.4636 12.8942 51.3558 12.7541 51.2186C12.614 51.0814 12.5026 50.9176 12.4266 50.7368C12.3506 50.556 12.3114 50.3619 12.3114 50.1658C12.3114 49.9696 12.3506 49.7755 12.4266 49.5947C12.5026 49.4139 12.614 49.2501 12.7541 49.1129C12.8942 48.9757 13.0604 48.8679 13.2427 48.7957C13.4251 48.7235 13.62 48.6885 13.8161 48.6927H13.8134ZM0 44.7198V46.3238H3.89263V53.2428H5.49528V46.3238H9.38659V44.7198H0ZM0 40.3586H9.38659V38.7546H0V40.3586ZM22.2701 53.2428H20.3924L23.5845 47.8304L20.9445 43.3472H22.8229L24.5236 46.237L26.2264 43.3472H28.1028L25.4602 47.829L28.6529 53.2415H26.7772L24.5236 49.4211L22.2701 53.2428ZM33.6882 44.5853H34.0196C34.5367 44.5869 35.0321 44.7931 35.3976 45.1588C35.7631 45.5246 35.969 46.0202 35.9702 46.5372V50.0541C35.969 50.5712 35.7631 51.0667 35.3976 51.4325C35.0321 51.7982 34.5367 52.0044 34.0196 52.006H33.6882C33.1712 52.0043 32.6758 51.798 32.3104 51.4323C31.9449 51.0666 31.739 50.5711 31.7376 50.0541V46.5372C31.739 46.0202 31.9449 45.5247 32.3104 45.159C32.6758 44.7933 33.1712 44.587 33.6882 44.5853ZM33.6882 42.9826H34.0196C34.9615 42.9853 35.8641 43.3606 36.5302 44.0267C37.1962 44.6927 37.5716 45.5953 37.5742 46.5372V50.0541C37.5717 50.9962 37.1965 51.899 36.5305 52.5653C35.8644 53.2316 34.9617 53.6072 34.0196 53.61H33.6882C32.7462 53.6069 31.8437 53.2312 31.1777 52.5649C30.5117 51.8987 30.1364 50.9961 30.1336 50.0541V46.5372C30.1366 45.5954 30.512 44.693 31.178 44.027C31.844 43.3611 32.7464 42.9856 33.6882 42.9826ZM64.9061 42.9826H65.2375C65.9258 42.9849 66.5988 43.1864 67.1751 43.5628C67.7514 43.9392 68.2064 44.4743 68.4853 45.1036L67.0271 45.7711C66.877 45.4202 66.6277 45.121 66.3097 44.9101C65.9918 44.6991 65.6191 44.5858 65.2375 44.584H64.9061C64.389 44.5855 63.8936 44.7917 63.5281 45.1575C63.1626 45.5233 62.9567 46.0188 62.9555 46.5359V50.0527C62.9567 50.5698 63.1626 51.0654 63.5281 51.4312C63.8936 51.7969 64.389 52.0031 64.9061 52.0047H65.2375C65.621 52.0039 65.9958 51.8904 66.3153 51.6782C66.6347 51.4661 66.8848 51.1648 67.0344 50.8117L68.4925 51.4791C68.2146 52.1112 67.7591 52.649 67.1815 53.0273C66.6038 53.4055 65.9287 53.608 65.2382 53.61H64.9068C63.9647 53.607 63.0621 53.2314 62.3961 52.5651C61.7301 51.8989 61.3548 50.9961 61.3522 50.0541V46.5372C61.3548 45.5953 61.7302 44.6927 62.3962 44.0267C63.0623 43.3606 63.9649 42.9853 64.9068 42.9826H64.9061ZM69.7691 43.3485V44.9525H72.6569V53.2428H74.2609V44.9525H77.15V43.3472L69.7691 43.3485ZM83.7966 47.5314H79.9822V46.4922C79.9915 45.9925 80.1965 45.5165 80.5532 45.1664C80.9099 44.8163 81.3897 44.6202 81.8894 44.6202C82.3892 44.6202 82.869 44.8163 83.2256 45.1664C83.5823 45.5165 83.7873 45.9925 83.7966 46.4922V47.5314ZM79.9822 49.1354H85.3993V46.4922C85.3619 45.5863 84.9758 44.73 84.3217 44.1023C83.6675 43.4746 82.796 43.1241 81.8894 43.1241C80.9828 43.1241 80.1113 43.4746 79.4572 44.1023C78.803 44.73 78.4169 45.5863 78.3795 46.4922V50.4909C78.3815 51.22 78.6719 51.9188 79.1875 52.4344C79.703 52.9501 80.4017 53.2407 81.1308 53.2428H84.7411V51.6388H81.1308C80.827 51.6367 80.5361 51.5152 80.3212 51.3003C80.1062 51.0855 79.9845 50.7947 79.9822 50.4909V49.1354ZM89.5385 44.9525H91.8145C92.2148 44.9535 92.5983 45.1129 92.8815 45.3958C93.1646 45.6787 93.3243 46.0621 93.3257 46.4624V50.1276C93.3247 50.5279 93.1652 50.9115 92.8821 51.1946C92.5991 51.4776 92.2155 51.6371 91.8152 51.6382H89.5391L89.5385 44.9525ZM86.412 44.9525H87.9365V57.667H89.5405V53.2428H91.8165C92.642 53.2405 93.433 52.9116 94.0168 52.3279C94.6005 51.7442 94.9294 50.9531 94.9317 50.1276V46.4624C94.9294 45.6369 94.6005 44.8458 94.0168 44.2621C93.433 43.6784 92.642 43.3495 91.8165 43.3472H86.414L86.412 44.9525ZM48.0962 53.2428H51.2252V51.6388H49.7008V43.3472H47.6885L45.0566 47.8118L42.4239 43.3472H40.4123V53.2428H42.0163V45.8446L44.2413 49.6166H45.8711L48.0962 45.8446V53.2428Z" fill="#62B6E3"/>
<path d="M152.908 31.0191L138.525 15.2941L124.02 31.1444H110.025C119.525 20.7631 129.025 10.3817 138.525 0C148.026 10.3839 157.524 20.7653 167.022 31.1444H153.026L152.908 31.0191ZM143.125 25.6796L138.525 20.6469L138.592 30.3795H147.431L143.125 25.6796ZM138.802 19.8257L149.157 31.1444H127.881L138.525 19.5188L138.802 19.8257ZM154.081 38.5644H144.557C143.591 38.5676 142.666 38.9526 141.983 39.6356C141.3 40.3186 140.915 41.244 140.911 42.2098V50.5479C140.915 51.5137 141.3 52.4391 141.983 53.1221C142.666 53.805 143.591 54.1901 144.557 54.1933H154.081V50.0176H145.087V42.7381H154.085L154.081 38.5644ZM155.866 38.5644H160.041V44.9571H160.624L166.578 38.5644H171.284L163.958 46.4279L170.652 54.1959H165.946L161.514 49.0513L160.041 50.6327V54.1959H155.865L155.866 38.5644ZM129.632 38.5644H139.321V42.353H134.279V54.1959H129.635V42.353H124.593V38.5644H129.632ZM118.629 38.5644H122.805V54.1959H118.629V47.7555L115.705 54.1959H112.357L109.432 47.7555V54.1959H105.257V38.5644H109.432L114.031 48.6927L118.629 38.5644ZM165.011 30.0766L138.525 1.12676L112.035 30.0766L138.459 14.2356L138.525 14.1694L138.592 14.2356L165.011 30.0766Z" fill="#62B6E3"/>
</g>
<line x1="0.961121" y1="61.9725" x2="171.079" y2="61.9725" stroke="#62B6E3"/>
<path d="M161.084 79.7727V69.0082H163.131V76.651L169.144 69.0082H171.079V79.7727H169.032V72.1453L163.019 79.7727H161.084ZM166.057 68.2855C165.098 68.2855 164.373 68.0907 163.882 67.7011C163.403 67.3115 163.157 66.763 163.147 66.0557H164.602C164.613 66.435 164.741 66.7272 164.986 66.9322C165.242 67.1372 165.599 67.2398 166.057 67.2398C166.516 67.2398 166.873 67.1372 167.129 66.9322C167.395 66.7272 167.534 66.435 167.545 66.0557H168.984C168.973 66.763 168.723 67.3115 168.232 67.7011C167.742 68.0907 167.017 68.2855 166.057 68.2855Z" fill="#62B6E3"/>
<path d="M148.414 79.7727V69.0082H150.461V76.651L156.474 69.0082H158.409V79.7727H156.362V72.1453L150.349 79.7727H148.414Z" fill="#62B6E3"/>
<path d="M143.658 69.0082H145.737V79.7727H143.658V69.0082ZM137.869 79.7727H135.79V69.0082H137.869V79.7727ZM143.818 75.1593H137.693V73.4524H143.818V75.1593Z" fill="#62B6E3"/>
<path d="M122.415 79.7727L127.453 69.0082H129.5L134.553 79.7727H132.378L128.044 70.0693H128.876L124.558 79.7727H122.415ZM124.734 77.2815L125.294 75.7129H131.339L131.899 77.2815H124.734Z" fill="#62B6E3"/>
<path d="M111.262 79.7727V69.0082H121.162V79.7727H119.115V70.2077L119.594 70.6997H112.83L113.309 70.2077V79.7727H111.262Z" fill="#62B6E3"/>
<path d="M96.3436 79.7727V69.0082H98.0387L102.948 76.8663H102.037L106.866 69.0082H108.562L108.594 79.7727H106.611L106.595 71.9761H107.01L102.916 78.5425H101.989L97.8308 71.9761H98.3106V79.7727H96.3436Z" fill="#62B6E3"/>
<path d="M88.4958 79.9266C87.6216 79.9266 86.8167 79.7882 86.081 79.5114C85.3454 79.2346 84.7057 78.8501 84.162 78.358C83.6182 77.8557 83.1971 77.2713 82.8986 76.6049C82.6001 75.9283 82.4508 75.1902 82.4508 74.3905C82.4508 73.5909 82.6001 72.8579 82.8986 72.1915C83.1971 71.5149 83.6182 70.9305 84.162 70.4384C84.7057 69.9361 85.3454 69.5465 86.081 69.2697C86.8167 68.9929 87.6163 68.8545 88.4799 68.8545C89.3541 68.8545 90.1537 68.9929 90.8787 69.2697C91.6143 69.5465 92.254 69.9361 92.7977 70.4384C93.3415 70.9305 93.7626 71.5149 94.0611 72.1915C94.3596 72.8579 94.5089 73.5909 94.5089 74.3905C94.5089 75.1902 94.3596 75.9283 94.0611 76.6049C93.7626 77.2816 93.3415 77.8659 92.7977 78.358C92.254 78.8501 91.6143 79.2346 90.8787 79.5114C90.1537 79.7882 89.3594 79.9266 88.4958 79.9266ZM88.4799 78.1735C89.0449 78.1735 89.5673 78.0812 90.0471 77.8967C90.5269 77.7121 90.9426 77.4507 91.2945 77.1124C91.6463 76.7638 91.9182 76.364 92.1101 75.9129C92.3126 75.4516 92.4139 74.9441 92.4139 74.3905C92.4139 73.8369 92.3126 73.3346 92.1101 72.8835C91.9182 72.4222 91.6463 72.0223 91.2945 71.684C90.9426 71.3355 90.5269 71.0689 90.0471 70.8844C89.5673 70.6998 89.0449 70.6076 88.4799 70.6076C87.9148 70.6076 87.3924 70.6998 86.9126 70.8844C86.4435 71.0689 86.0277 71.3355 85.6652 71.684C85.3134 72.0223 85.0362 72.4222 84.8336 72.8835C84.6417 73.3346 84.5458 73.8369 84.5458 74.3905C84.5458 74.9339 84.6417 75.4362 84.8336 75.8976C85.0362 76.3589 85.3134 76.7638 85.6652 77.1124C86.0171 77.4507 86.4329 77.7121 86.9126 77.8967C87.3924 78.0812 87.9148 78.1735 88.4799 78.1735Z" fill="#62B6E3"/>
<path d="M80.0473 79.7727L76.2571 74.5288L77.9363 73.5293L82.3981 79.7727H80.0473ZM72.6429 79.7727V69.0082H74.6899V79.7727H72.6429ZM74.0662 75.2362V73.5139H77.8403V75.2362H74.0662ZM78.1282 74.6211L76.2251 74.3751L80.0473 69.0082H82.2542L78.1282 74.6211Z" fill="#62B6E3"/>
<path d="M55.328 79.7727L60.3655 69.0082H62.4125L67.4661 79.7727H65.2911L60.9572 70.0693H61.7888L57.471 79.7727H55.328ZM57.6469 77.2815L58.2066 75.7129H64.2516L64.8114 77.2815H57.6469Z" fill="#62B6E3"/>
<path d="M44.1753 79.7727V69.0082H54.0744V79.7727H52.0275V70.2077L52.5072 70.6997H45.7425L46.2223 70.2077V79.7727H44.1753Z" fill="#62B6E3"/>
<path d="M31.5834 79.7727V69.0082H41.4825V79.7727H39.4355V70.2077L39.9153 70.6997H33.1506L33.6304 70.2077V79.7727H31.5834Z" fill="#62B6E3"/>
<path d="M21.15 78.0811C21.7364 78.2759 22.2535 78.3272 22.7012 78.2349C23.149 78.1426 23.5488 77.8299 23.9006 77.2969L24.4444 76.4818L24.6523 76.2665L28.5544 69.0082H30.6014L25.7397 77.6967C25.3453 78.4246 24.8762 78.9782 24.3324 79.3575C23.7887 79.7368 23.2023 79.947 22.5733 79.988C21.9549 80.0392 21.3099 79.9265 20.6382 79.6497L21.15 78.0811ZM24.6043 77.9889L19.6147 69.0082H21.8377L25.7397 76.4511L24.6043 77.9889Z" fill="#62B6E3"/>
<path d="M10.3816 79.7727V69.0082H14.9873C15.9789 69.0082 16.8264 69.162 17.5301 69.4695C18.2444 69.7771 18.7935 70.2179 19.1773 70.792C19.5611 71.3661 19.753 72.0479 19.753 72.8373C19.753 73.6267 19.5611 74.3084 19.1773 74.8825C18.7935 75.4566 18.2444 75.8975 17.5301 76.205C16.8264 76.5126 15.9789 76.6664 14.9873 76.6664H11.533L12.4606 75.7283V79.7727H10.3816ZM12.4606 75.9436L11.533 74.9748H14.8914C15.8083 74.9748 16.4959 74.7903 16.9544 74.4212C17.4235 74.0419 17.658 73.5139 17.658 72.8373C17.658 72.1504 17.4235 71.6224 16.9544 71.2533C16.4959 70.8843 15.8083 70.6997 14.8914 70.6997H11.533L12.4606 69.7156V75.9436Z" fill="#62B6E3"/>
<path d="M1.52246 79.7727V69.0082H9.11874L9.10275 70.6997H3.0737L3.55347 70.223L3.56946 79.7727H1.52246Z" fill="#62B6E3"/>
<defs>
<clipPath id="clip0_105_6449">
<rect width="171.282" height="57.667" fill="white"/>
</clipPath>
</defs>
</svg>
