<svg width="1728" height="728" viewBox="0 0 1728 728" fill="none" xmlns="http://www.w3.org/2000/svg">
<mask id="mask0_107_6501" style="mask-type:alpha" maskUnits="userSpaceOnUse" x="0" y="0" width="1728" height="728">
<rect width="1728" height="728" fill="url(#paint0_linear_107_6501)"/>
</mask>
<g mask="url(#mask0_107_6501)">
<rect x="-3" y="-23" width="1731" height="751" fill="url(#paint1_linear_107_6501)"/>
<path opacity="0.42" d="M72.5188 1.99107C92.5485 85.5509 140.18 161.753 209.199 220.654C278.217 279.555 365.418 318.421 459.423 332.179C462.88 332.795 466.444 332.733 469.872 331.998C473.301 331.264 476.511 329.873 479.285 327.922C482.059 325.971 484.331 323.505 485.945 320.694C487.56 317.882 488.478 314.791 488.638 311.631C496.64 202.308 464.766 93.6186 397.834 1.99107H499.692C499.692 1.99107 523.38 45.2132 536.014 72.8469C536.612 73.8879 537.517 74.7609 538.632 75.3704C539.746 75.98 541.026 76.3027 542.331 76.3027C543.636 76.3027 544.916 75.98 546.03 75.3704C547.144 74.7609 548.05 73.8879 548.648 72.8469C556.954 48.1557 568.344 24.3862 582.6 1.99107H654.454C591.021 96.0964 565.907 207.026 583.39 315.883C583.702 317.916 584.528 319.858 585.804 321.56C587.081 323.263 588.774 324.681 590.755 325.707C592.736 326.733 594.952 327.338 597.234 327.477C599.515 327.617 601.802 327.286 603.92 326.511L877.121 198.97V358.396C801.385 357.468 726.294 370.993 656.823 398.075C653.881 399.155 651.273 400.855 649.22 403.033C647.168 405.211 645.732 407.801 645.034 410.584C644.336 413.366 644.398 416.259 645.213 419.016C646.028 421.772 647.573 424.312 649.716 426.418C690.776 471.057 801.32 587.261 878.7 611.352V702.047L799.74 654.574C798.772 653.869 797.594 653.438 796.353 653.333C795.112 653.228 793.864 653.456 792.767 653.986C791.67 654.516 790.772 655.326 790.186 656.313C789.6 657.3 789.353 658.421 789.476 659.534C786.253 706.598 800.104 753.333 828.956 792.743H705.778C705.778 792.743 753.944 642.528 583.39 456.177C580.944 453.63 577.914 451.586 574.507 450.184C571.101 448.783 567.397 448.058 563.65 448.058C559.903 448.058 556.199 448.783 552.793 450.184C549.386 451.586 546.356 453.63 543.91 456.177C496.602 501.373 459.918 554.653 436.042 612.841C412.167 671.029 401.59 732.934 404.94 794.868H300.713C304.354 752.061 315.271 710.006 333.087 670.162C333.087 665.911 333.087 660.951 324.401 663.077C252.983 693.653 190.724 739.077 142.793 795.577H-9.59961V660.951C-9.59961 660.951 322.032 687.167 464.16 422.166C465.211 420.269 465.821 418.199 465.95 416.084C466.08 413.968 465.728 411.851 464.915 409.861C464.102 407.872 462.845 406.052 461.222 404.513C459.599 402.974 457.644 401.748 455.475 400.91C389.938 377.527 139.635 303.837 -8.02045 420.749V293.209H115.157C116.86 293.134 118.5 292.612 119.874 291.707C121.248 290.802 122.295 289.554 122.884 288.118C123.473 286.683 123.579 285.124 123.188 283.635C122.797 282.147 121.926 280.794 120.684 279.746C74.7752 249.698 31.7256 216.281 -8.02045 179.839V-0.134521H70.9396L72.5188 1.99107Z" fill="#67B2DB"/>
<rect opacity="0.59" width="1336.96" height="927.065" transform="matrix(0.963137 -0.269012 0.33566 0.941983 -474.581 413.757)" fill="url(#paint2_radial_107_6501)"/>
<rect opacity="0.59" width="1722.6" height="1194.48" transform="matrix(0.963137 -0.269012 0.33566 0.941983 -366.785 -43.3342)" fill="url(#paint3_radial_107_6501)"/>
<rect opacity="0.59" width="1722.6" height="1194.48" transform="matrix(0.963137 -0.269012 0.33566 0.941983 -976.774 453.527)" fill="url(#paint4_radial_107_6501)"/>
<path opacity="0.12" d="M975.44 777.011C1051.02 788.688 1128.36 781.315 1197.39 755.852C1266.41 730.389 1323.9 688.02 1362.37 634.272C1363.87 632.327 1364.85 630.122 1365.22 627.807C1365.58 625.492 1365.34 623.123 1364.51 620.86C1363.67 618.598 1362.26 616.497 1360.38 614.699C1358.49 612.902 1356.17 611.452 1353.58 610.447C1264.51 574.175 1164.54 562.558 1068.76 577.352L1097.98 514.838C1097.98 514.838 1140.9 512.698 1167.62 512.872C1168.66 512.803 1169.65 512.498 1170.48 511.989C1171.3 511.48 1171.94 510.787 1172.32 509.986C1172.69 509.185 1172.79 508.307 1172.6 507.448C1172.41 506.59 1171.94 505.783 1171.24 505.118C1152.99 492.937 1136.39 479.128 1121.76 463.954L1142.38 419.854C1202.82 485.781 1288.32 533.016 1384.31 553.514C1386.1 553.905 1387.96 553.956 1389.75 553.661C1391.54 553.366 1393.21 552.733 1394.63 551.812C1396.06 550.89 1397.2 549.704 1397.97 548.343C1398.74 546.983 1399.12 545.485 1399.08 543.963L1370.87 339.701L1504.1 385.435C1481.6 431.651 1471.36 481.617 1474.07 532.023C1474.12 534.138 1474.8 536.227 1476.03 538.111C1477.26 539.996 1479.01 541.62 1481.14 542.847C1483.26 544.073 1485.7 544.865 1488.23 545.156C1490.77 545.446 1493.34 545.226 1495.71 544.515C1544.8 532.121 1673.62 497.61 1715.95 457.03L1791.74 483.047L1729.42 517.889C1728.55 518.281 1727.85 518.881 1727.41 519.613C1726.97 520.344 1726.8 521.175 1726.93 522.001C1727.06 522.826 1727.48 523.609 1728.13 524.252C1728.79 524.895 1729.65 525.368 1730.62 525.612C1769.03 541.091 1812.06 545.997 1853.27 539.595L1817.93 615.194C1817.93 615.194 1706.22 542.541 1501.56 593.759C1498.73 594.53 1496.15 595.803 1494 597.492C1491.85 599.18 1490.18 601.245 1489.11 603.545C1488.03 605.845 1487.58 608.326 1487.77 610.819C1487.96 613.312 1488.8 615.758 1490.23 617.99C1514.43 659.989 1548.43 697.788 1590.21 729.134C1631.99 760.479 1680.69 784.729 1733.41 800.439L1703.51 864.408C1668.78 849.894 1636.77 831.129 1608.58 808.765C1605.03 807.545 1600.88 806.123 1600.17 812.063C1605.23 864.667 1625.33 915.908 1658.8 961.533L1615.09 1055.06L1502.58 1016.44C1502.58 1016.44 1619.62 820.428 1438.93 657.179C1437.65 655.989 1436.09 655.022 1434.36 654.335C1432.63 653.649 1430.76 653.257 1428.86 653.186C1426.97 653.114 1425.09 653.363 1423.33 653.918C1421.58 654.472 1420 655.321 1418.67 656.411C1380.33 689.926 1246.95 822.408 1302.29 946.568L1195.71 909.981L1231.04 834.382C1231.47 833.316 1231.5 832.159 1231.14 831.056C1230.78 829.954 1230.04 828.953 1229.01 828.18C1227.98 827.406 1226.7 826.894 1225.35 826.707C1223.99 826.52 1222.61 826.667 1221.38 827.128C1183.1 846.685 1142.82 863.52 1100.96 877.46L950.56 825.831L973.211 777.37L975.44 777.011Z" fill="#B5E1FA"/>
</g>
<defs>
<linearGradient id="paint0_linear_107_6501" x1="775.97" y1="7.23253e-07" x2="803.395" y2="730.276" gradientUnits="userSpaceOnUse">
<stop stop-color="#238CC6"/>
<stop offset="1" stop-color="#439ACA"/>
</linearGradient>
<linearGradient id="paint1_linear_107_6501" x1="774.317" y1="-23" x2="803.449" y2="730.284" gradientUnits="userSpaceOnUse">
<stop stop-color="#4B9FCE"/>
<stop offset="1" stop-color="#3CA9E4"/>
</linearGradient>
<radialGradient id="paint2_radial_107_6501" cx="0" cy="0" r="1" gradientUnits="userSpaceOnUse" gradientTransform="translate(668.478 463.532) rotate(53.2129) scale(328.422 429.681)">
<stop stop-color="#0076B7"/>
<stop offset="1" stop-color="#139BD6" stop-opacity="0"/>
</radialGradient>
<radialGradient id="paint3_radial_107_6501" cx="0" cy="0" r="1" gradientUnits="userSpaceOnUse" gradientTransform="translate(861.301 597.239) rotate(53.2129) scale(423.156 553.623)">
<stop stop-color="#75CEFF"/>
<stop offset="1" stop-color="#ADE6FF" stop-opacity="0"/>
</radialGradient>
<radialGradient id="paint4_radial_107_6501" cx="0" cy="0" r="1" gradientUnits="userSpaceOnUse" gradientTransform="translate(861.301 597.239) rotate(53.2129) scale(423.156 553.623)">
<stop stop-color="#75CEFF"/>
<stop offset="1" stop-color="#ADE6FF" stop-opacity="0"/>
</radialGradient>
</defs>
</svg>
